<mxfile host="65bd71144e">
    <diagram id="khGJ2daZu2ltyK99D0Vk" name="Page-1">
        <mxGraphModel dx="795" dy="516" grid="1" gridSize="10" guides="1" tooltips="1" connect="1" arrows="1" fold="1" page="1" pageScale="1" pageWidth="1169" pageHeight="827" math="0" shadow="0">
            <root>
                <mxCell id="0"/>
                <mxCell id="1" parent="0"/>
                <mxCell id="POmQF6q5LUfOOO5Ifvi4-3" value="" style="edgeStyle=orthogonalEdgeStyle;rounded=0;orthogonalLoop=1;jettySize=auto;html=1;" parent="1" source="POmQF6q5LUfOOO5Ifvi4-1" target="POmQF6q5LUfOOO5Ifvi4-2" edge="1">
                    <mxGeometry relative="1" as="geometry"/>
                </mxCell>
                <mxCell id="POmQF6q5LUfOOO5Ifvi4-1" value="START" style="ellipse;whiteSpace=wrap;html=1;" parent="1" vertex="1">
                    <mxGeometry x="252.5" y="50" width="90" height="50" as="geometry"/>
                </mxCell>
                <mxCell id="POmQF6q5LUfOOO5Ifvi4-5" value="" style="edgeStyle=orthogonalEdgeStyle;rounded=0;orthogonalLoop=1;jettySize=auto;html=1;" parent="1" source="POmQF6q5LUfOOO5Ifvi4-2" target="POmQF6q5LUfOOO5Ifvi4-4" edge="1">
                    <mxGeometry relative="1" as="geometry"/>
                </mxCell>
                <mxCell id="POmQF6q5LUfOOO5Ifvi4-2" value="CONFIGURATION Express App" style="whiteSpace=wrap;html=1;" parent="1" vertex="1">
                    <mxGeometry x="237.5" y="138" width="120" height="60" as="geometry"/>
                </mxCell>
                <mxCell id="POmQF6q5LUfOOO5Ifvi4-7" value="" style="edgeStyle=orthogonalEdgeStyle;rounded=0;orthogonalLoop=1;jettySize=auto;html=1;" parent="1" source="POmQF6q5LUfOOO5Ifvi4-4" target="POmQF6q5LUfOOO5Ifvi4-6" edge="1">
                    <mxGeometry relative="1" as="geometry"/>
                </mxCell>
                <mxCell id="POmQF6q5LUfOOO5Ifvi4-4" value="CONFIGURATION ROUTE OR make ENDPOINT /api/products/:id" style="whiteSpace=wrap;html=1;" parent="1" vertex="1">
                    <mxGeometry x="237.5" y="238" width="120" height="70" as="geometry"/>
                </mxCell>
                <mxCell id="POmQF6q5LUfOOO5Ifvi4-9" value="" style="edgeStyle=orthogonalEdgeStyle;rounded=0;orthogonalLoop=1;jettySize=auto;html=1;" parent="1" source="POmQF6q5LUfOOO5Ifvi4-6" target="POmQF6q5LUfOOO5Ifvi4-8" edge="1">
                    <mxGeometry relative="1" as="geometry"/>
                </mxCell>
                <mxCell id="POmQF6q5LUfOOO5Ifvi4-6" value="CONFIGURATION PG Pool to connect DATABASE" style="whiteSpace=wrap;html=1;" parent="1" vertex="1">
                    <mxGeometry x="237.5" y="348" width="120" height="70" as="geometry"/>
                </mxCell>
                <mxCell id="POmQF6q5LUfOOO5Ifvi4-13" value="" style="edgeStyle=orthogonalEdgeStyle;rounded=0;orthogonalLoop=1;jettySize=auto;html=1;" parent="1" source="POmQF6q5LUfOOO5Ifvi4-8" target="POmQF6q5LUfOOO5Ifvi4-12" edge="1">
                    <mxGeometry relative="1" as="geometry"/>
                </mxCell>
                <mxCell id="POmQF6q5LUfOOO5Ifvi4-8" value="RUNNING Express App" style="whiteSpace=wrap;html=1;" parent="1" vertex="1">
                    <mxGeometry x="237.5" y="450" width="120" height="70" as="geometry"/>
                </mxCell>
                <mxCell id="POmQF6q5LUfOOO5Ifvi4-46" value="FALSE" style="edgeStyle=orthogonalEdgeStyle;rounded=0;orthogonalLoop=1;jettySize=auto;html=1;" parent="1" source="POmQF6q5LUfOOO5Ifvi4-12" target="POmQF6q5LUfOOO5Ifvi4-45" edge="1">
                    <mxGeometry relative="1" as="geometry"/>
                </mxCell>
                <mxCell id="6" value="TRUE" style="edgeStyle=none;html=1;" edge="1" parent="1" source="POmQF6q5LUfOOO5Ifvi4-12" target="POmQF6q5LUfOOO5Ifvi4-16">
                    <mxGeometry relative="1" as="geometry"/>
                </mxCell>
                <mxCell id="POmQF6q5LUfOOO5Ifvi4-12" value="CONNECT to&amp;nbsp;&lt;br&gt;DATABASE&lt;br&gt;dizzy_coffee" style="rhombus;whiteSpace=wrap;html=1;" parent="1" vertex="1">
                    <mxGeometry x="212.5" y="558" width="170" height="90" as="geometry"/>
                </mxCell>
                <mxCell id="7" style="edgeStyle=none;html=1;" edge="1" parent="1" source="POmQF6q5LUfOOO5Ifvi4-16" target="POmQF6q5LUfOOO5Ifvi4-32">
                    <mxGeometry relative="1" as="geometry"/>
                </mxCell>
                <mxCell id="POmQF6q5LUfOOO5Ifvi4-16" value="INPUT id &lt;br&gt;with&lt;br&gt;REQUEST PARAMS" style="shape=parallelogram;perimeter=parallelogramPerimeter;whiteSpace=wrap;html=1;fixedSize=1;" parent="1" vertex="1">
                    <mxGeometry x="212.5" y="688" width="165" height="60" as="geometry"/>
                </mxCell>
                <mxCell id="POmQF6q5LUfOOO5Ifvi4-25" value="FALSE" style="edgeStyle=orthogonalEdgeStyle;rounded=0;orthogonalLoop=1;jettySize=auto;html=1;" parent="1" source="POmQF6q5LUfOOO5Ifvi4-18" target="POmQF6q5LUfOOO5Ifvi4-24" edge="1">
                    <mxGeometry relative="1" as="geometry"/>
                </mxCell>
                <mxCell id="POmQF6q5LUfOOO5Ifvi4-36" value="TRUE" style="edgeStyle=orthogonalEdgeStyle;rounded=0;orthogonalLoop=1;jettySize=auto;html=1;" parent="1" source="POmQF6q5LUfOOO5Ifvi4-18" target="POmQF6q5LUfOOO5Ifvi4-20" edge="1">
                    <mxGeometry relative="1" as="geometry"/>
                </mxCell>
                <mxCell id="POmQF6q5LUfOOO5Ifvi4-18" value="id === true?" style="rhombus;whiteSpace=wrap;html=1;" parent="1" vertex="1">
                    <mxGeometry x="232.5" y="1002" width="130" height="80" as="geometry"/>
                </mxCell>
                <mxCell id="POmQF6q5LUfOOO5Ifvi4-23" value="" style="edgeStyle=orthogonalEdgeStyle;rounded=0;orthogonalLoop=1;jettySize=auto;html=1;" parent="1" source="POmQF6q5LUfOOO5Ifvi4-20" target="POmQF6q5LUfOOO5Ifvi4-22" edge="1">
                    <mxGeometry relative="1" as="geometry"/>
                </mxCell>
                <mxCell id="POmQF6q5LUfOOO5Ifvi4-20" value="RETURN data, total,&lt;br&gt;&amp;nbsp;message, status(200)" style="whiteSpace=wrap;html=1;" parent="1" vertex="1">
                    <mxGeometry x="17.5" y="1012" width="145" height="60" as="geometry"/>
                </mxCell>
                <mxCell id="POmQF6q5LUfOOO5Ifvi4-39" style="edgeStyle=orthogonalEdgeStyle;rounded=0;orthogonalLoop=1;jettySize=auto;html=1;entryX=0.5;entryY=0;entryDx=0;entryDy=0;" parent="1" source="POmQF6q5LUfOOO5Ifvi4-22" target="POmQF6q5LUfOOO5Ifvi4-38" edge="1">
                    <mxGeometry relative="1" as="geometry"/>
                </mxCell>
                <mxCell id="POmQF6q5LUfOOO5Ifvi4-22" value="handle by THEN({data, total, message, status})" style="whiteSpace=wrap;html=1;" parent="1" vertex="1">
                    <mxGeometry x="15" y="1125" width="150" height="60" as="geometry"/>
                </mxCell>
                <mxCell id="POmQF6q5LUfOOO5Ifvi4-27" value="" style="edgeStyle=orthogonalEdgeStyle;rounded=0;orthogonalLoop=1;jettySize=auto;html=1;" parent="1" source="POmQF6q5LUfOOO5Ifvi4-24" target="POmQF6q5LUfOOO5Ifvi4-26" edge="1">
                    <mxGeometry relative="1" as="geometry"/>
                </mxCell>
                <mxCell id="POmQF6q5LUfOOO5Ifvi4-24" value="RETURN message, status(404), err" style="whiteSpace=wrap;html=1;" parent="1" vertex="1">
                    <mxGeometry x="447.5" y="1012" width="120" height="60" as="geometry"/>
                </mxCell>
                <mxCell id="POmQF6q5LUfOOO5Ifvi4-26" value="handle by CACTH({&lt;br&gt;message, status, err})" style="whiteSpace=wrap;html=1;" parent="1" vertex="1">
                    <mxGeometry x="447.5" y="1135" width="120" height="60" as="geometry"/>
                </mxCell>
                <mxCell id="3" value="" style="edgeStyle=none;html=1;" edge="1" parent="1" source="POmQF6q5LUfOOO5Ifvi4-32" target="POmQF6q5LUfOOO5Ifvi4-50">
                    <mxGeometry relative="1" as="geometry"/>
                </mxCell>
                <mxCell id="POmQF6q5LUfOOO5Ifvi4-32" value="GET api/product/:id" style="rounded=0;whiteSpace=wrap;html=1;" parent="1" vertex="1">
                    <mxGeometry x="237.5" y="780" width="120" height="60" as="geometry"/>
                </mxCell>
                <mxCell id="POmQF6q5LUfOOO5Ifvi4-43" value="" style="edgeStyle=orthogonalEdgeStyle;rounded=0;orthogonalLoop=1;jettySize=auto;html=1;" parent="1" source="POmQF6q5LUfOOO5Ifvi4-38" target="POmQF6q5LUfOOO5Ifvi4-42" edge="1">
                    <mxGeometry relative="1" as="geometry"/>
                </mxCell>
                <mxCell id="POmQF6q5LUfOOO5Ifvi4-38" value="&lt;span&gt;OUTPUT&lt;br&gt;RESPONSE&amp;nbsp;&lt;/span&gt;&lt;br&gt;&lt;span&gt;JSON&amp;nbsp;&lt;/span&gt;&lt;span&gt;data, message,&lt;/span&gt;&lt;br&gt;&lt;span&gt;status, total&lt;/span&gt;" style="shape=parallelogram;perimeter=parallelogramPerimeter;whiteSpace=wrap;html=1;fixedSize=1;" parent="1" vertex="1">
                    <mxGeometry x="15" y="1241" width="150" height="70" as="geometry"/>
                </mxCell>
                <mxCell id="POmQF6q5LUfOOO5Ifvi4-40" style="edgeStyle=orthogonalEdgeStyle;rounded=0;orthogonalLoop=1;jettySize=auto;html=1;entryX=0.5;entryY=0;entryDx=0;entryDy=0;" parent="1" target="POmQF6q5LUfOOO5Ifvi4-41" edge="1">
                    <mxGeometry relative="1" as="geometry">
                        <mxPoint x="510" y="1195" as="sourcePoint"/>
                    </mxGeometry>
                </mxCell>
                <mxCell id="POmQF6q5LUfOOO5Ifvi4-44" value="" style="edgeStyle=orthogonalEdgeStyle;rounded=0;orthogonalLoop=1;jettySize=auto;html=1;" parent="1" source="POmQF6q5LUfOOO5Ifvi4-41" target="POmQF6q5LUfOOO5Ifvi4-42" edge="1">
                    <mxGeometry relative="1" as="geometry"/>
                </mxCell>
                <mxCell id="POmQF6q5LUfOOO5Ifvi4-41" value="&lt;span&gt;OUTPUT&lt;/span&gt;&lt;br&gt;&lt;span&gt;RESPONSE&amp;nbsp;&lt;/span&gt;&lt;br&gt;&lt;span&gt;JSON&lt;/span&gt;&lt;br&gt;&lt;span&gt;message, status, err&lt;/span&gt;" style="shape=parallelogram;perimeter=parallelogramPerimeter;whiteSpace=wrap;html=1;fixedSize=1;" parent="1" vertex="1">
                    <mxGeometry x="435" y="1241" width="150" height="70" as="geometry"/>
                </mxCell>
                <mxCell id="POmQF6q5LUfOOO5Ifvi4-42" value="STOP" style="ellipse;whiteSpace=wrap;html=1;" parent="1" vertex="1">
                    <mxGeometry x="237.5" y="1246" width="120" height="60" as="geometry"/>
                </mxCell>
                <mxCell id="POmQF6q5LUfOOO5Ifvi4-45" value="A" style="ellipse;whiteSpace=wrap;html=1;aspect=fixed;" parent="1" vertex="1">
                    <mxGeometry x="445.5" y="583" width="40" height="40" as="geometry"/>
                </mxCell>
                <mxCell id="POmQF6q5LUfOOO5Ifvi4-48" style="edgeStyle=orthogonalEdgeStyle;rounded=0;orthogonalLoop=1;jettySize=auto;html=1;entryX=0.5;entryY=0;entryDx=0;entryDy=0;" parent="1" source="POmQF6q5LUfOOO5Ifvi4-47" target="POmQF6q5LUfOOO5Ifvi4-42" edge="1">
                    <mxGeometry relative="1" as="geometry"/>
                </mxCell>
                <mxCell id="POmQF6q5LUfOOO5Ifvi4-47" value="A" style="ellipse;whiteSpace=wrap;html=1;aspect=fixed;" parent="1" vertex="1">
                    <mxGeometry x="277.5" y="1155" width="40" height="40" as="geometry"/>
                </mxCell>
                <mxCell id="POmQF6q5LUfOOO5Ifvi4-49" value="&lt;b&gt;FLOWCHART GET PRODUCT DETAIL&lt;/b&gt;" style="text;html=1;strokeColor=none;fillColor=none;align=center;verticalAlign=middle;whiteSpace=wrap;rounded=0;" parent="1" vertex="1">
                    <mxGeometry x="198.75" y="8" width="197.5" height="30" as="geometry"/>
                </mxCell>
                <mxCell id="POmQF6q5LUfOOO5Ifvi4-55" value="FALSE" style="edgeStyle=orthogonalEdgeStyle;rounded=0;orthogonalLoop=1;jettySize=auto;html=1;" parent="1" source="POmQF6q5LUfOOO5Ifvi4-50" target="POmQF6q5LUfOOO5Ifvi4-54" edge="1">
                    <mxGeometry relative="1" as="geometry"/>
                </mxCell>
                <mxCell id="2" value="TRUE" style="edgeStyle=none;html=1;" edge="1" parent="1" source="POmQF6q5LUfOOO5Ifvi4-50" target="POmQF6q5LUfOOO5Ifvi4-18">
                    <mxGeometry relative="1" as="geometry"/>
                </mxCell>
                <mxCell id="POmQF6q5LUfOOO5Ifvi4-50" value="endpoint === true?" style="rhombus;whiteSpace=wrap;html=1;rounded=0;" parent="1" vertex="1">
                    <mxGeometry x="232.5" y="880" width="130" height="80" as="geometry"/>
                </mxCell>
                <mxCell id="POmQF6q5LUfOOO5Ifvi4-57" value="" style="edgeStyle=orthogonalEdgeStyle;rounded=0;orthogonalLoop=1;jettySize=auto;html=1;" parent="1" source="POmQF6q5LUfOOO5Ifvi4-54" target="POmQF6q5LUfOOO5Ifvi4-45" edge="1">
                    <mxGeometry relative="1" as="geometry"/>
                </mxCell>
                <mxCell id="POmQF6q5LUfOOO5Ifvi4-54" value="OUPUT &lt;br&gt;RESPONSE&lt;br&gt;message:&lt;br&gt;&amp;nbsp;&quot;ENDPOINT is wrong!&quot;" style="shape=parallelogram;perimeter=parallelogramPerimeter;whiteSpace=wrap;html=1;fixedSize=1;rounded=0;" parent="1" vertex="1">
                    <mxGeometry x="381.5" y="688" width="167.5" height="60" as="geometry"/>
                </mxCell>
                <mxCell id="POmQF6q5LUfOOO5Ifvi4-58" value="" style="edgeStyle=orthogonalEdgeStyle;rounded=0;orthogonalLoop=1;jettySize=auto;html=1;" parent="1" source="POmQF6q5LUfOOO5Ifvi4-59" target="POmQF6q5LUfOOO5Ifvi4-61" edge="1">
                    <mxGeometry relative="1" as="geometry"/>
                </mxCell>
                <mxCell id="POmQF6q5LUfOOO5Ifvi4-59" value="START" style="ellipse;whiteSpace=wrap;html=1;" parent="1" vertex="1">
                    <mxGeometry x="912.5" y="50" width="90" height="50" as="geometry"/>
                </mxCell>
                <mxCell id="POmQF6q5LUfOOO5Ifvi4-60" value="" style="edgeStyle=orthogonalEdgeStyle;rounded=0;orthogonalLoop=1;jettySize=auto;html=1;" parent="1" source="POmQF6q5LUfOOO5Ifvi4-61" target="POmQF6q5LUfOOO5Ifvi4-63" edge="1">
                    <mxGeometry relative="1" as="geometry"/>
                </mxCell>
                <mxCell id="POmQF6q5LUfOOO5Ifvi4-61" value="CONFIGURATION Express App" style="whiteSpace=wrap;html=1;" parent="1" vertex="1">
                    <mxGeometry x="897.5" y="130" width="120" height="60" as="geometry"/>
                </mxCell>
                <mxCell id="POmQF6q5LUfOOO5Ifvi4-62" value="" style="edgeStyle=orthogonalEdgeStyle;rounded=0;orthogonalLoop=1;jettySize=auto;html=1;" parent="1" source="POmQF6q5LUfOOO5Ifvi4-63" target="POmQF6q5LUfOOO5Ifvi4-65" edge="1">
                    <mxGeometry relative="1" as="geometry"/>
                </mxCell>
                <mxCell id="POmQF6q5LUfOOO5Ifvi4-63" value="CONFIGURATION ROUTE OR make ENDPOINT /api/products/updated/:id" style="whiteSpace=wrap;html=1;" parent="1" vertex="1">
                    <mxGeometry x="878.75" y="228" width="157.5" height="70" as="geometry"/>
                </mxCell>
                <mxCell id="POmQF6q5LUfOOO5Ifvi4-64" value="" style="edgeStyle=orthogonalEdgeStyle;rounded=0;orthogonalLoop=1;jettySize=auto;html=1;" parent="1" source="POmQF6q5LUfOOO5Ifvi4-65" target="POmQF6q5LUfOOO5Ifvi4-67" edge="1">
                    <mxGeometry relative="1" as="geometry"/>
                </mxCell>
                <mxCell id="POmQF6q5LUfOOO5Ifvi4-65" value="CONFIGURATION PG Pool to connect DATABASE" style="whiteSpace=wrap;html=1;" parent="1" vertex="1">
                    <mxGeometry x="897.5" y="340" width="120" height="70" as="geometry"/>
                </mxCell>
                <mxCell id="POmQF6q5LUfOOO5Ifvi4-66" value="" style="edgeStyle=orthogonalEdgeStyle;rounded=0;orthogonalLoop=1;jettySize=auto;html=1;" parent="1" source="POmQF6q5LUfOOO5Ifvi4-67" target="POmQF6q5LUfOOO5Ifvi4-70" edge="1">
                    <mxGeometry relative="1" as="geometry"/>
                </mxCell>
                <mxCell id="POmQF6q5LUfOOO5Ifvi4-67" value="RUNNING Express App" style="whiteSpace=wrap;html=1;" parent="1" vertex="1">
                    <mxGeometry x="897.5" y="450" width="120" height="70" as="geometry"/>
                </mxCell>
                <mxCell id="POmQF6q5LUfOOO5Ifvi4-69" value="" style="edgeStyle=orthogonalEdgeStyle;rounded=0;orthogonalLoop=1;jettySize=auto;html=1;" parent="1" source="POmQF6q5LUfOOO5Ifvi4-70" target="POmQF6q5LUfOOO5Ifvi4-91" edge="1">
                    <mxGeometry relative="1" as="geometry"/>
                </mxCell>
                <mxCell id="9" value="" style="edgeStyle=none;html=1;" edge="1" parent="1" source="POmQF6q5LUfOOO5Ifvi4-70" target="POmQF6q5LUfOOO5Ifvi4-100">
                    <mxGeometry relative="1" as="geometry"/>
                </mxCell>
                <mxCell id="POmQF6q5LUfOOO5Ifvi4-70" value="CONNECT to&amp;nbsp;&lt;br&gt;DATABASE&lt;br&gt;dizzy_coffee" style="rhombus;whiteSpace=wrap;html=1;" parent="1" vertex="1">
                    <mxGeometry x="872.5" y="550" width="170" height="90" as="geometry"/>
                </mxCell>
                <mxCell id="12" value="" style="edgeStyle=none;html=1;" edge="1" parent="1" source="POmQF6q5LUfOOO5Ifvi4-72" target="POmQF6q5LUfOOO5Ifvi4-84">
                    <mxGeometry relative="1" as="geometry"/>
                </mxCell>
                <mxCell id="POmQF6q5LUfOOO5Ifvi4-72" value="INPUT id &lt;br&gt;with&lt;br&gt;REQUEST PARAMS" style="shape=parallelogram;perimeter=parallelogramPerimeter;whiteSpace=wrap;html=1;fixedSize=1;" parent="1" vertex="1">
                    <mxGeometry x="878.75" y="810" width="165" height="60" as="geometry"/>
                </mxCell>
                <mxCell id="sGFE-TJFLqwam2I6f3Bg-9" value="TRUE" style="edgeStyle=orthogonalEdgeStyle;rounded=0;orthogonalLoop=1;jettySize=auto;html=1;fontSize=10;" parent="1" source="POmQF6q5LUfOOO5Ifvi4-75" target="POmQF6q5LUfOOO5Ifvi4-77" edge="1">
                    <mxGeometry relative="1" as="geometry"/>
                </mxCell>
                <mxCell id="sGFE-TJFLqwam2I6f3Bg-10" value="FALSE" style="edgeStyle=orthogonalEdgeStyle;rounded=0;orthogonalLoop=1;jettySize=auto;html=1;fontSize=10;" parent="1" source="POmQF6q5LUfOOO5Ifvi4-75" target="POmQF6q5LUfOOO5Ifvi4-81" edge="1">
                    <mxGeometry relative="1" as="geometry"/>
                </mxCell>
                <mxCell id="POmQF6q5LUfOOO5Ifvi4-75" value="id === true?" style="rhombus;whiteSpace=wrap;html=1;" parent="1" vertex="1">
                    <mxGeometry x="892.5" y="1266" width="130" height="80" as="geometry"/>
                </mxCell>
                <mxCell id="POmQF6q5LUfOOO5Ifvi4-76" value="" style="edgeStyle=orthogonalEdgeStyle;rounded=0;orthogonalLoop=1;jettySize=auto;html=1;" parent="1" source="POmQF6q5LUfOOO5Ifvi4-77" target="POmQF6q5LUfOOO5Ifvi4-79" edge="1">
                    <mxGeometry relative="1" as="geometry"/>
                </mxCell>
                <mxCell id="POmQF6q5LUfOOO5Ifvi4-77" value="RETURN data,&lt;br&gt;&amp;nbsp;message, status(200)" style="whiteSpace=wrap;html=1;" parent="1" vertex="1">
                    <mxGeometry x="690" y="1275" width="145" height="60" as="geometry"/>
                </mxCell>
                <mxCell id="POmQF6q5LUfOOO5Ifvi4-78" style="edgeStyle=orthogonalEdgeStyle;rounded=0;orthogonalLoop=1;jettySize=auto;html=1;entryX=0.5;entryY=0;entryDx=0;entryDy=0;" parent="1" source="POmQF6q5LUfOOO5Ifvi4-79" target="POmQF6q5LUfOOO5Ifvi4-86" edge="1">
                    <mxGeometry relative="1" as="geometry"/>
                </mxCell>
                <mxCell id="POmQF6q5LUfOOO5Ifvi4-79" value="handle by THEN({data, message, status})" style="whiteSpace=wrap;html=1;" parent="1" vertex="1">
                    <mxGeometry x="687.5" y="1380" width="150" height="60" as="geometry"/>
                </mxCell>
                <mxCell id="sGFE-TJFLqwam2I6f3Bg-11" value="" style="edgeStyle=orthogonalEdgeStyle;rounded=0;orthogonalLoop=1;jettySize=auto;html=1;fontSize=10;" parent="1" source="POmQF6q5LUfOOO5Ifvi4-81" target="POmQF6q5LUfOOO5Ifvi4-82" edge="1">
                    <mxGeometry relative="1" as="geometry"/>
                </mxCell>
                <mxCell id="POmQF6q5LUfOOO5Ifvi4-81" value="RETURN message, status(500), err" style="whiteSpace=wrap;html=1;" parent="1" vertex="1">
                    <mxGeometry x="1095" y="1274" width="120" height="60" as="geometry"/>
                </mxCell>
                <mxCell id="sGFE-TJFLqwam2I6f3Bg-14" value="" style="edgeStyle=orthogonalEdgeStyle;rounded=0;orthogonalLoop=1;jettySize=auto;html=1;fontSize=10;" parent="1" source="POmQF6q5LUfOOO5Ifvi4-82" target="POmQF6q5LUfOOO5Ifvi4-89" edge="1">
                    <mxGeometry relative="1" as="geometry"/>
                </mxCell>
                <mxCell id="POmQF6q5LUfOOO5Ifvi4-82" value="handle by CACTH({&lt;br&gt;message, status, err})" style="whiteSpace=wrap;html=1;" parent="1" vertex="1">
                    <mxGeometry x="1077.5" y="1379" width="155" height="60" as="geometry"/>
                </mxCell>
                <mxCell id="11" value="" style="edgeStyle=none;html=1;" edge="1" parent="1" source="POmQF6q5LUfOOO5Ifvi4-84" target="POmQF6q5LUfOOO5Ifvi4-97">
                    <mxGeometry relative="1" as="geometry"/>
                </mxCell>
                <mxCell id="POmQF6q5LUfOOO5Ifvi4-84" value="PATCH api/product/updated/:id" style="rounded=0;whiteSpace=wrap;html=1;" parent="1" vertex="1">
                    <mxGeometry x="882.5" y="921" width="157.5" height="60" as="geometry"/>
                </mxCell>
                <mxCell id="POmQF6q5LUfOOO5Ifvi4-85" value="" style="edgeStyle=orthogonalEdgeStyle;rounded=0;orthogonalLoop=1;jettySize=auto;html=1;entryX=0;entryY=0.5;entryDx=0;entryDy=0;" parent="1" source="POmQF6q5LUfOOO5Ifvi4-86" target="POmQF6q5LUfOOO5Ifvi4-90" edge="1">
                    <mxGeometry relative="1" as="geometry">
                        <mxPoint x="872.5" y="1521" as="targetPoint"/>
                    </mxGeometry>
                </mxCell>
                <mxCell id="POmQF6q5LUfOOO5Ifvi4-86" value="&lt;span&gt;OUTPUT&lt;br&gt;RESPONSE&amp;nbsp;&lt;/span&gt;&lt;br&gt;&lt;span&gt;JSON&amp;nbsp;&lt;/span&gt;&lt;span&gt;data, message,&lt;/span&gt;&lt;br&gt;&lt;span&gt;status&lt;/span&gt;" style="shape=parallelogram;perimeter=parallelogramPerimeter;whiteSpace=wrap;html=1;fixedSize=1;" parent="1" vertex="1">
                    <mxGeometry x="687.5" y="1500" width="150" height="70" as="geometry"/>
                </mxCell>
                <mxCell id="POmQF6q5LUfOOO5Ifvi4-88" value="" style="edgeStyle=orthogonalEdgeStyle;rounded=0;orthogonalLoop=1;jettySize=auto;html=1;entryX=1;entryY=0.5;entryDx=0;entryDy=0;" parent="1" source="POmQF6q5LUfOOO5Ifvi4-89" target="POmQF6q5LUfOOO5Ifvi4-90" edge="1">
                    <mxGeometry relative="1" as="geometry">
                        <mxPoint x="1045" y="1521" as="targetPoint"/>
                    </mxGeometry>
                </mxCell>
                <mxCell id="POmQF6q5LUfOOO5Ifvi4-89" value="&lt;span&gt;OUTPUT&lt;/span&gt;&lt;br&gt;&lt;span&gt;RESPONSE&amp;nbsp;&lt;/span&gt;&lt;br&gt;&lt;span&gt;JSON&lt;/span&gt;&lt;br&gt;&lt;span&gt;message, status, err&lt;/span&gt;" style="shape=parallelogram;perimeter=parallelogramPerimeter;whiteSpace=wrap;html=1;fixedSize=1;" parent="1" vertex="1">
                    <mxGeometry x="1080.5" y="1500" width="150" height="70" as="geometry"/>
                </mxCell>
                <mxCell id="POmQF6q5LUfOOO5Ifvi4-90" value="STOP" style="ellipse;whiteSpace=wrap;html=1;" parent="1" vertex="1">
                    <mxGeometry x="895.5" y="1505" width="120" height="60" as="geometry"/>
                </mxCell>
                <mxCell id="POmQF6q5LUfOOO5Ifvi4-91" value="A" style="ellipse;whiteSpace=wrap;html=1;aspect=fixed;" parent="1" vertex="1">
                    <mxGeometry x="1173.75" y="800" width="40" height="40" as="geometry"/>
                </mxCell>
                <mxCell id="POmQF6q5LUfOOO5Ifvi4-92" style="edgeStyle=orthogonalEdgeStyle;rounded=0;orthogonalLoop=1;jettySize=auto;html=1;entryX=0.5;entryY=0;entryDx=0;entryDy=0;" parent="1" source="POmQF6q5LUfOOO5Ifvi4-93" target="POmQF6q5LUfOOO5Ifvi4-90" edge="1">
                    <mxGeometry relative="1" as="geometry"/>
                </mxCell>
                <mxCell id="POmQF6q5LUfOOO5Ifvi4-93" value="A" style="ellipse;whiteSpace=wrap;html=1;aspect=fixed;" parent="1" vertex="1">
                    <mxGeometry x="935.5" y="1410" width="40" height="40" as="geometry"/>
                </mxCell>
                <mxCell id="POmQF6q5LUfOOO5Ifvi4-94" value="&lt;b&gt;FLOWCHART UPDATE PRODUCT&amp;nbsp;&lt;/b&gt;" style="text;html=1;strokeColor=none;fillColor=none;align=center;verticalAlign=middle;whiteSpace=wrap;rounded=0;" parent="1" vertex="1">
                    <mxGeometry x="858.75" width="197.5" height="30" as="geometry"/>
                </mxCell>
                <mxCell id="POmQF6q5LUfOOO5Ifvi4-104" value="FALSE" style="edgeStyle=orthogonalEdgeStyle;rounded=0;orthogonalLoop=1;jettySize=auto;html=1;" parent="1" source="POmQF6q5LUfOOO5Ifvi4-97" target="POmQF6q5LUfOOO5Ifvi4-99" edge="1">
                    <mxGeometry relative="1" as="geometry"/>
                </mxCell>
                <mxCell id="13" value="" style="edgeStyle=none;html=1;" edge="1" parent="1" source="POmQF6q5LUfOOO5Ifvi4-97" target="sGFE-TJFLqwam2I6f3Bg-17">
                    <mxGeometry relative="1" as="geometry"/>
                </mxCell>
                <mxCell id="POmQF6q5LUfOOO5Ifvi4-97" value="endpoint === true?" style="rhombus;whiteSpace=wrap;html=1;rounded=0;" parent="1" vertex="1">
                    <mxGeometry x="896.25" y="1012" width="130" height="80" as="geometry"/>
                </mxCell>
                <mxCell id="POmQF6q5LUfOOO5Ifvi4-105" value="" style="edgeStyle=orthogonalEdgeStyle;rounded=0;orthogonalLoop=1;jettySize=auto;html=1;" parent="1" source="POmQF6q5LUfOOO5Ifvi4-99" target="POmQF6q5LUfOOO5Ifvi4-91" edge="1">
                    <mxGeometry relative="1" as="geometry"/>
                </mxCell>
                <mxCell id="POmQF6q5LUfOOO5Ifvi4-99" value="OUPUT &lt;br&gt;RESPONSE&lt;br&gt;message:&lt;br&gt;&amp;nbsp;&quot;ENDPOINT is wrong!&quot;" style="shape=parallelogram;perimeter=parallelogramPerimeter;whiteSpace=wrap;html=1;fixedSize=1;rounded=0;" parent="1" vertex="1">
                    <mxGeometry x="1110" y="1022" width="167.5" height="60" as="geometry"/>
                </mxCell>
                <mxCell id="10" value="" style="edgeStyle=none;html=1;" edge="1" parent="1" source="POmQF6q5LUfOOO5Ifvi4-100" target="POmQF6q5LUfOOO5Ifvi4-72">
                    <mxGeometry relative="1" as="geometry"/>
                </mxCell>
                <mxCell id="POmQF6q5LUfOOO5Ifvi4-100" value="INPUT name, price, image, description, start, end, updated, categoryId, deliveryMethodsId, sizeId, deliveryInfo&lt;br&gt;with REQUEST BODY" style="shape=parallelogram;perimeter=parallelogramPerimeter;whiteSpace=wrap;html=1;fixedSize=1;" parent="1" vertex="1">
                    <mxGeometry x="856" y="673" width="203" height="90" as="geometry"/>
                </mxCell>
                <mxCell id="POmQF6q5LUfOOO5Ifvi4-146" value="&lt;b&gt;FLOWCHART INSERT PRODUCT&amp;nbsp;&lt;/b&gt;" style="text;html=1;strokeColor=none;fillColor=none;align=center;verticalAlign=middle;whiteSpace=wrap;rounded=0;" parent="1" vertex="1">
                    <mxGeometry x="1533.75" y="6" width="197.5" height="30" as="geometry"/>
                </mxCell>
                <mxCell id="14" value="" style="edgeStyle=none;html=1;" edge="1" parent="1" source="sGFE-TJFLqwam2I6f3Bg-17" target="POmQF6q5LUfOOO5Ifvi4-75">
                    <mxGeometry relative="1" as="geometry"/>
                </mxCell>
                <mxCell id="15" value="FALSE" style="edgeStyle=none;html=1;entryX=0.5;entryY=0;entryDx=0;entryDy=0;" edge="1" parent="1" target="POmQF6q5LUfOOO5Ifvi4-81">
                    <mxGeometry x="0.0553" y="5" relative="1" as="geometry">
                        <mxPoint x="1050" y="1180" as="sourcePoint"/>
                        <Array as="points">
                            <mxPoint x="1155" y="1180"/>
                        </Array>
                        <mxPoint as="offset"/>
                    </mxGeometry>
                </mxCell>
                <mxCell id="sGFE-TJFLqwam2I6f3Bg-17" value="&lt;span style=&quot;font-size: 12px&quot;&gt;REQUEST BODY === true?&lt;/span&gt;" style="rhombus;whiteSpace=wrap;html=1;fontSize=10;" parent="1" vertex="1">
                    <mxGeometry x="875" y="1134" width="172.5" height="92" as="geometry"/>
                </mxCell>
                <mxCell id="sGFE-TJFLqwam2I6f3Bg-21" value="" style="edgeStyle=orthogonalEdgeStyle;rounded=0;orthogonalLoop=1;jettySize=auto;html=1;" parent="1" source="sGFE-TJFLqwam2I6f3Bg-22" target="sGFE-TJFLqwam2I6f3Bg-24" edge="1">
                    <mxGeometry relative="1" as="geometry"/>
                </mxCell>
                <mxCell id="sGFE-TJFLqwam2I6f3Bg-22" value="START" style="ellipse;whiteSpace=wrap;html=1;" parent="1" vertex="1">
                    <mxGeometry x="1590" y="48" width="90" height="50" as="geometry"/>
                </mxCell>
                <mxCell id="sGFE-TJFLqwam2I6f3Bg-23" value="" style="edgeStyle=orthogonalEdgeStyle;rounded=0;orthogonalLoop=1;jettySize=auto;html=1;" parent="1" source="sGFE-TJFLqwam2I6f3Bg-24" target="sGFE-TJFLqwam2I6f3Bg-26" edge="1">
                    <mxGeometry relative="1" as="geometry"/>
                </mxCell>
                <mxCell id="sGFE-TJFLqwam2I6f3Bg-24" value="CONFIGURATION Express App" style="whiteSpace=wrap;html=1;" parent="1" vertex="1">
                    <mxGeometry x="1575" y="128" width="120" height="60" as="geometry"/>
                </mxCell>
                <mxCell id="sGFE-TJFLqwam2I6f3Bg-25" value="" style="edgeStyle=orthogonalEdgeStyle;rounded=0;orthogonalLoop=1;jettySize=auto;html=1;" parent="1" source="sGFE-TJFLqwam2I6f3Bg-26" target="sGFE-TJFLqwam2I6f3Bg-28" edge="1">
                    <mxGeometry relative="1" as="geometry"/>
                </mxCell>
                <mxCell id="sGFE-TJFLqwam2I6f3Bg-26" value="CONFIGURATION ROUTE OR make ENDPOINT /api/products/updated/:id" style="whiteSpace=wrap;html=1;" parent="1" vertex="1">
                    <mxGeometry x="1556.25" y="226" width="157.5" height="70" as="geometry"/>
                </mxCell>
                <mxCell id="sGFE-TJFLqwam2I6f3Bg-27" value="" style="edgeStyle=orthogonalEdgeStyle;rounded=0;orthogonalLoop=1;jettySize=auto;html=1;" parent="1" source="sGFE-TJFLqwam2I6f3Bg-28" target="sGFE-TJFLqwam2I6f3Bg-30" edge="1">
                    <mxGeometry relative="1" as="geometry"/>
                </mxCell>
                <mxCell id="sGFE-TJFLqwam2I6f3Bg-28" value="CONFIGURATION PG Pool to connect DATABASE" style="whiteSpace=wrap;html=1;" parent="1" vertex="1">
                    <mxGeometry x="1575" y="338" width="120" height="70" as="geometry"/>
                </mxCell>
                <mxCell id="sGFE-TJFLqwam2I6f3Bg-29" value="" style="edgeStyle=orthogonalEdgeStyle;rounded=0;orthogonalLoop=1;jettySize=auto;html=1;" parent="1" source="sGFE-TJFLqwam2I6f3Bg-30" target="sGFE-TJFLqwam2I6f3Bg-33" edge="1">
                    <mxGeometry relative="1" as="geometry"/>
                </mxCell>
                <mxCell id="sGFE-TJFLqwam2I6f3Bg-30" value="RUNNING Express App" style="whiteSpace=wrap;html=1;" parent="1" vertex="1">
                    <mxGeometry x="1575" y="448" width="120" height="70" as="geometry"/>
                </mxCell>
                <mxCell id="sGFE-TJFLqwam2I6f3Bg-32" value="" style="edgeStyle=orthogonalEdgeStyle;rounded=0;orthogonalLoop=1;jettySize=auto;html=1;" parent="1" source="sGFE-TJFLqwam2I6f3Bg-33" target="sGFE-TJFLqwam2I6f3Bg-54" edge="1">
                    <mxGeometry relative="1" as="geometry"/>
                </mxCell>
                <mxCell id="16" value="" style="edgeStyle=none;html=1;" edge="1" parent="1" source="sGFE-TJFLqwam2I6f3Bg-33" target="sGFE-TJFLqwam2I6f3Bg-63">
                    <mxGeometry relative="1" as="geometry"/>
                </mxCell>
                <mxCell id="sGFE-TJFLqwam2I6f3Bg-33" value="CONNECT to&amp;nbsp;&lt;br&gt;DATABASE&lt;br&gt;dizzy_coffee" style="rhombus;whiteSpace=wrap;html=1;" parent="1" vertex="1">
                    <mxGeometry x="1550" y="548" width="170" height="90" as="geometry"/>
                </mxCell>
                <mxCell id="sGFE-TJFLqwam2I6f3Bg-39" value="" style="edgeStyle=orthogonalEdgeStyle;rounded=0;orthogonalLoop=1;jettySize=auto;html=1;" parent="1" source="sGFE-TJFLqwam2I6f3Bg-40" target="sGFE-TJFLqwam2I6f3Bg-42" edge="1">
                    <mxGeometry relative="1" as="geometry"/>
                </mxCell>
                <mxCell id="sGFE-TJFLqwam2I6f3Bg-40" value="RETURN data,&lt;br&gt;&amp;nbsp;message, status(200)" style="whiteSpace=wrap;html=1;" parent="1" vertex="1">
                    <mxGeometry x="1360" y="1050" width="145" height="60" as="geometry"/>
                </mxCell>
                <mxCell id="sGFE-TJFLqwam2I6f3Bg-41" style="edgeStyle=orthogonalEdgeStyle;rounded=0;orthogonalLoop=1;jettySize=auto;html=1;entryX=0.5;entryY=0;entryDx=0;entryDy=0;" parent="1" source="sGFE-TJFLqwam2I6f3Bg-42" target="sGFE-TJFLqwam2I6f3Bg-50" edge="1">
                    <mxGeometry relative="1" as="geometry"/>
                </mxCell>
                <mxCell id="sGFE-TJFLqwam2I6f3Bg-42" value="handle by THEN({data, message, status})" style="whiteSpace=wrap;html=1;" parent="1" vertex="1">
                    <mxGeometry x="1357.5" y="1155" width="150" height="60" as="geometry"/>
                </mxCell>
                <mxCell id="sGFE-TJFLqwam2I6f3Bg-43" value="" style="edgeStyle=orthogonalEdgeStyle;rounded=0;orthogonalLoop=1;jettySize=auto;html=1;fontSize=10;" parent="1" source="sGFE-TJFLqwam2I6f3Bg-44" target="sGFE-TJFLqwam2I6f3Bg-46" edge="1">
                    <mxGeometry relative="1" as="geometry"/>
                </mxCell>
                <mxCell id="sGFE-TJFLqwam2I6f3Bg-44" value="RETURN message, status(400), err" style="whiteSpace=wrap;html=1;" parent="1" vertex="1">
                    <mxGeometry x="1770" y="1050" width="120" height="60" as="geometry"/>
                </mxCell>
                <mxCell id="sGFE-TJFLqwam2I6f3Bg-45" value="" style="edgeStyle=orthogonalEdgeStyle;rounded=0;orthogonalLoop=1;jettySize=auto;html=1;fontSize=10;" parent="1" source="sGFE-TJFLqwam2I6f3Bg-46" target="sGFE-TJFLqwam2I6f3Bg-52" edge="1">
                    <mxGeometry relative="1" as="geometry"/>
                </mxCell>
                <mxCell id="sGFE-TJFLqwam2I6f3Bg-46" value="handle by CACTH({&lt;br&gt;message, status, err})" style="whiteSpace=wrap;html=1;" parent="1" vertex="1">
                    <mxGeometry x="1752.5" y="1155" width="155" height="60" as="geometry"/>
                </mxCell>
                <mxCell id="17" value="" style="edgeStyle=none;html=1;" edge="1" parent="1" source="sGFE-TJFLqwam2I6f3Bg-48" target="sGFE-TJFLqwam2I6f3Bg-59">
                    <mxGeometry relative="1" as="geometry"/>
                </mxCell>
                <mxCell id="sGFE-TJFLqwam2I6f3Bg-48" value="POST api/product/" style="rounded=0;whiteSpace=wrap;html=1;" parent="1" vertex="1">
                    <mxGeometry x="1556.5" y="798" width="157.5" height="72" as="geometry"/>
                </mxCell>
                <mxCell id="sGFE-TJFLqwam2I6f3Bg-49" value="" style="edgeStyle=orthogonalEdgeStyle;rounded=0;orthogonalLoop=1;jettySize=auto;html=1;entryX=0;entryY=0.5;entryDx=0;entryDy=0;" parent="1" source="sGFE-TJFLqwam2I6f3Bg-50" target="sGFE-TJFLqwam2I6f3Bg-53" edge="1">
                    <mxGeometry relative="1" as="geometry">
                        <mxPoint x="1547.5" y="1297" as="targetPoint"/>
                    </mxGeometry>
                </mxCell>
                <mxCell id="sGFE-TJFLqwam2I6f3Bg-50" value="&lt;span&gt;OUTPUT&lt;br&gt;RESPONSE&amp;nbsp;&lt;/span&gt;&lt;br&gt;&lt;span&gt;JSON&amp;nbsp;&lt;/span&gt;&lt;span&gt;data, message,&lt;/span&gt;&lt;br&gt;&lt;span&gt;status&lt;/span&gt;" style="shape=parallelogram;perimeter=parallelogramPerimeter;whiteSpace=wrap;html=1;fixedSize=1;" parent="1" vertex="1">
                    <mxGeometry x="1357.5" y="1276" width="150" height="70" as="geometry"/>
                </mxCell>
                <mxCell id="sGFE-TJFLqwam2I6f3Bg-51" value="" style="edgeStyle=orthogonalEdgeStyle;rounded=0;orthogonalLoop=1;jettySize=auto;html=1;entryX=1;entryY=0.5;entryDx=0;entryDy=0;" parent="1" source="sGFE-TJFLqwam2I6f3Bg-52" target="sGFE-TJFLqwam2I6f3Bg-53" edge="1">
                    <mxGeometry relative="1" as="geometry">
                        <mxPoint x="1720" y="1297" as="targetPoint"/>
                    </mxGeometry>
                </mxCell>
                <mxCell id="sGFE-TJFLqwam2I6f3Bg-52" value="&lt;span&gt;OUTPUT&lt;/span&gt;&lt;br&gt;&lt;span&gt;RESPONSE&amp;nbsp;&lt;/span&gt;&lt;br&gt;&lt;span&gt;JSON&lt;/span&gt;&lt;br&gt;&lt;span&gt;message, status, err&lt;/span&gt;" style="shape=parallelogram;perimeter=parallelogramPerimeter;whiteSpace=wrap;html=1;fixedSize=1;" parent="1" vertex="1">
                    <mxGeometry x="1755.5" y="1276" width="150" height="70" as="geometry"/>
                </mxCell>
                <mxCell id="sGFE-TJFLqwam2I6f3Bg-53" value="STOP" style="ellipse;whiteSpace=wrap;html=1;" parent="1" vertex="1">
                    <mxGeometry x="1570.5" y="1281" width="120" height="60" as="geometry"/>
                </mxCell>
                <mxCell id="sGFE-TJFLqwam2I6f3Bg-54" value="A" style="ellipse;whiteSpace=wrap;html=1;aspect=fixed;" parent="1" vertex="1">
                    <mxGeometry x="1853.75" y="810" width="40" height="40" as="geometry"/>
                </mxCell>
                <mxCell id="sGFE-TJFLqwam2I6f3Bg-55" style="edgeStyle=orthogonalEdgeStyle;rounded=0;orthogonalLoop=1;jettySize=auto;html=1;entryX=0.5;entryY=0;entryDx=0;entryDy=0;" parent="1" source="sGFE-TJFLqwam2I6f3Bg-56" target="sGFE-TJFLqwam2I6f3Bg-53" edge="1">
                    <mxGeometry relative="1" as="geometry"/>
                </mxCell>
                <mxCell id="sGFE-TJFLqwam2I6f3Bg-56" value="A" style="ellipse;whiteSpace=wrap;html=1;aspect=fixed;" parent="1" vertex="1">
                    <mxGeometry x="1610.5" y="1186" width="40" height="40" as="geometry"/>
                </mxCell>
                <mxCell id="sGFE-TJFLqwam2I6f3Bg-57" value="FALSE" style="edgeStyle=orthogonalEdgeStyle;rounded=0;orthogonalLoop=1;jettySize=auto;html=1;" parent="1" source="sGFE-TJFLqwam2I6f3Bg-59" target="sGFE-TJFLqwam2I6f3Bg-61" edge="1">
                    <mxGeometry relative="1" as="geometry"/>
                </mxCell>
                <mxCell id="18" value="TRUE" style="edgeStyle=none;html=1;" edge="1" parent="1" source="sGFE-TJFLqwam2I6f3Bg-59" target="sGFE-TJFLqwam2I6f3Bg-66">
                    <mxGeometry relative="1" as="geometry"/>
                </mxCell>
                <mxCell id="sGFE-TJFLqwam2I6f3Bg-59" value="endpoint === true?" style="rhombus;whiteSpace=wrap;html=1;rounded=0;" parent="1" vertex="1">
                    <mxGeometry x="1570" y="911" width="130" height="80" as="geometry"/>
                </mxCell>
                <mxCell id="sGFE-TJFLqwam2I6f3Bg-60" value="" style="edgeStyle=orthogonalEdgeStyle;rounded=0;orthogonalLoop=1;jettySize=auto;html=1;" parent="1" source="sGFE-TJFLqwam2I6f3Bg-61" target="sGFE-TJFLqwam2I6f3Bg-54" edge="1">
                    <mxGeometry relative="1" as="geometry"/>
                </mxCell>
                <mxCell id="sGFE-TJFLqwam2I6f3Bg-61" value="OUPUT &lt;br&gt;RESPONSE&lt;br&gt;message:&lt;br&gt;&amp;nbsp;&quot;ENDPOINT is wrong!&quot;" style="shape=parallelogram;perimeter=parallelogramPerimeter;whiteSpace=wrap;html=1;fixedSize=1;rounded=0;" parent="1" vertex="1">
                    <mxGeometry x="1790" y="921" width="167.5" height="60" as="geometry"/>
                </mxCell>
                <mxCell id="19" value="" style="edgeStyle=none;html=1;" edge="1" parent="1" source="sGFE-TJFLqwam2I6f3Bg-63" target="sGFE-TJFLqwam2I6f3Bg-48">
                    <mxGeometry relative="1" as="geometry"/>
                </mxCell>
                <mxCell id="sGFE-TJFLqwam2I6f3Bg-63" value="INPUT name, price, image, description, start, end, updated, categoryId, deliveryMethodsId, sizeId, deliveryInfo&lt;br&gt;with REQUEST BODY" style="shape=parallelogram;perimeter=parallelogramPerimeter;whiteSpace=wrap;html=1;fixedSize=1;" parent="1" vertex="1">
                    <mxGeometry x="1533.75" y="673" width="203" height="90" as="geometry"/>
                </mxCell>
                <mxCell id="sGFE-TJFLqwam2I6f3Bg-67" value="" style="edgeStyle=orthogonalEdgeStyle;rounded=0;orthogonalLoop=1;jettySize=auto;html=1;fontSize=10;" parent="1" source="sGFE-TJFLqwam2I6f3Bg-66" target="sGFE-TJFLqwam2I6f3Bg-40" edge="1">
                    <mxGeometry relative="1" as="geometry"/>
                </mxCell>
                <mxCell id="sGFE-TJFLqwam2I6f3Bg-68" value="" style="edgeStyle=orthogonalEdgeStyle;rounded=0;orthogonalLoop=1;jettySize=auto;html=1;fontSize=10;" parent="1" source="sGFE-TJFLqwam2I6f3Bg-66" target="sGFE-TJFLqwam2I6f3Bg-44" edge="1">
                    <mxGeometry relative="1" as="geometry"/>
                </mxCell>
                <mxCell id="sGFE-TJFLqwam2I6f3Bg-66" value="&lt;span style=&quot;font-size: 12px&quot;&gt;REQUEST BODY === true?&lt;/span&gt;" style="rhombus;whiteSpace=wrap;html=1;fontSize=10;" parent="1" vertex="1">
                    <mxGeometry x="1549" y="1034" width="172.5" height="92" as="geometry"/>
                </mxCell>
            </root>
        </mxGraphModel>
    </diagram>
</mxfile>